<svg width="90" height="64" viewBox="0 0 90 64" fill="none" xmlns="http://www.w3.org/2000/svg">
<path d="M0 27V2C12 2 16 9 16 15C7.99999 15 0 23 0 27Z" fill="#1376c0"/>
<path fill-rule="evenodd" clip-rule="evenodd" d="M0 35.5C0 27 14 14.5 29 14.5C35 14.5 39.5 12.5 39.5 8.5V0H54.5V11.5C68.5 3.5 89.5 15.5 89.5 30V62C73.7308 62 74.31 50.8142 74.4765 47.5983C74.4895 47.3473 74.5 47.1448 74.5 47V30C72.4958 20 57 20 55 30V41C55 51 42.5 61 34 62H24C18.5 61 14.5 58.5 14.5 57.5C14.5 59.5 9.5 64 0 64V35.5ZM39.5 27C41.5 47 29.5 51 21.5 45C13.5 37 19.5 23 39.5 27Z" fill="#25a8df"/>
</svg>
